G04 #@! TF.FileFunction,Soldermask,Bot*
%FSLAX46Y46*%
G04 Gerber Fmt 4.6, Leading zero omitted, Abs format (unit mm)*
G04 Created by KiCad (PCBNEW 4.0.5+dfsg1-4) date Tue May 29 15:03:41 2018*
%MOMM*%
%LPD*%
G01*
G04 APERTURE LIST*
%ADD10C,0.100000*%
%ADD11R,1.727200X1.727200*%
%ADD12O,1.727200X1.727200*%
%ADD13C,2.000000*%
%ADD14C,6.000000*%
G04 APERTURE END LIST*
D10*
D11*
X79000000Y-80000000D03*
D12*
X76460000Y-80000000D03*
X79000000Y-77460000D03*
X76460000Y-77460000D03*
X79000000Y-74920000D03*
X76460000Y-74920000D03*
X79000000Y-72380000D03*
X76460000Y-72380000D03*
X79000000Y-69840000D03*
X76460000Y-69840000D03*
D11*
X89500000Y-80000000D03*
D12*
X86960000Y-80000000D03*
X89500000Y-77460000D03*
X86960000Y-77460000D03*
X89500000Y-74920000D03*
X86960000Y-74920000D03*
X89500000Y-72380000D03*
X86960000Y-72380000D03*
X89500000Y-69840000D03*
X86960000Y-69840000D03*
D13*
X109000000Y-89200000D03*
X109000000Y-96800000D03*
D14*
X179000000Y-61000000D03*
X179000000Y-89000000D03*
X78000000Y-61000000D03*
X78000000Y-89000000D03*
X93000000Y-61000000D03*
X194000000Y-61000000D03*
X93000000Y-89000000D03*
X194000000Y-89000000D03*
D11*
X100000000Y-80000000D03*
D12*
X97460000Y-80000000D03*
X100000000Y-77460000D03*
X97460000Y-77460000D03*
X100000000Y-74920000D03*
X97460000Y-74920000D03*
X100000000Y-72380000D03*
X97460000Y-72380000D03*
X100000000Y-69840000D03*
X97460000Y-69840000D03*
M02*
