M48
;DRILL file {KiCad 4.0.5+dfsg1-4} date Wed May 30 14:31:25 2018
;FORMAT={-:-/ absolute / inch / decimal}
FMAT,2
INCH,TZ
T1C0.012
T2C0.033
T3C0.040
T4C0.126
%
G90
G05
M72
T1
X3.248Y-3.6319
X3.2776Y-3.8189
X3.3071Y-2.2441
X3.3268Y-3.6417
X3.3661Y-3.7303
X3.3661Y-3.9173
X3.4252Y-2.2441
X3.4252Y-2.5
X3.4843Y-2.5
X3.4843Y-3.6024
X3.5827Y-2.9035
X3.6811Y-2.9035
X3.6811Y-3.1102
X3.6909Y-3.7402
X3.6909Y-3.9173
X3.7598Y-3.2087
X3.9961Y-2.5197
X3.9961Y-2.5984
X4.0059Y-3.4843
X4.0354Y-3.2776
X4.0453Y-2.3622
X4.0551Y-2.5984
X4.0748Y-2.4508
X4.0846Y-2.6673
X4.0846Y-2.7264
X4.0846Y-2.7854
X4.1043Y-3.1299
X4.1142Y-2.3524
X4.1339Y-2.5984
X4.1339Y-2.9035
X4.1732Y-3.1299
X4.1929Y-2.8445
X4.2224Y-3.1299
X4.2421Y-3.3465
X4.2618Y-2.7264
X4.2717Y-2.3917
X4.2815Y-2.6673
X4.311Y-2.5984
X4.3209Y-2.3917
X4.3406Y-2.5787
X4.3504Y-3.0217
X4.3799Y-2.4606
X4.4193Y-2.3622
X4.4193Y-2.4606
X4.439Y-2.5787
X4.4587Y-2.4508
X4.4685Y-2.3622
X4.4882Y-2.7559
X4.498Y-2.5098
X4.5276Y-2.4213
X4.5768Y-3.4547
X4.5866Y-2.313
X4.5866Y-2.3819
X4.5965Y-2.5787
X4.6457Y-2.4409
X4.6752Y-3.8878
X4.6949Y-3.9567
X4.7146Y-2.5492
X4.7441Y-3.7008
X4.7933Y-2.4606
X4.8228Y-3.8386
X4.8917Y-2.313
X4.9213Y-3.7008
X4.9803Y-3.937
X5.0886Y-3.7008
X5.1181Y-3.8681
X5.1575Y-2.4803
X5.1673Y-2.815
X5.1772Y-2.2736
X5.1772Y-2.5098
X5.1772Y-2.6083
X5.187Y-2.8445
X5.1969Y-2.3031
X5.1969Y-2.6378
X5.1969Y-2.9724
X5.1969Y-3.2677
X5.2067Y-3.061
X5.2165Y-2.3327
X5.2165Y-2.6673
X5.2165Y-2.9429
X5.2165Y-3.002
X5.2165Y-3.2382
X5.2362Y-2.3622
X5.2362Y-2.5394
X5.2362Y-2.6969
X5.2362Y-2.874
X5.2461Y-3.1988
X5.3248Y-2.4508
X5.3248Y-2.7854
X5.3248Y-3.1201
X5.4429Y-2.4508
X5.4429Y-2.7854
X5.4429Y-3.1201
X5.4528Y-3.2874
X5.5217Y-2.5591
X5.5217Y-2.8937
X5.5315Y-3.4154
X5.5413Y-2.5886
X5.5413Y-2.9232
X5.5413Y-3.2874
X5.5413Y-3.3661
X5.561Y-2.6476
X5.5807Y-2.9823
X5.6398Y-3.2185
X5.6988Y-3.4941
X5.7087Y-3.3465
X5.7283Y-3.376
X5.7382Y-3.4941
X5.748Y-3.4055
X5.7776Y-3.4941
X5.7874Y-3.1594
X5.7874Y-3.2283
X5.8169Y-3.1299
X5.8169Y-3.4941
X5.8465Y-3.1004
X5.8563Y-3.4941
X5.876Y-3.0709
X5.8957Y-3.0413
X5.9055Y-3.1594
X5.9154Y-3.0118
X5.9252Y-3.4646
X5.935Y-2.9823
X5.9449Y-3.4941
X5.9547Y-2.9528
X5.9646Y-3.5236
X5.9744Y-2.9232
X5.9843Y-3.5531
X5.9941Y-2.8937
X6.0039Y-3.5827
X6.0236Y-3.6122
X6.0531Y-3.0709
X6.0728Y-2.7657
X6.0728Y-3.0217
X6.0827Y-3.6417
X6.0925Y-2.7362
X6.1024Y-3.6713
X6.1122Y-2.7067
X6.122Y-3.7008
X6.1319Y-2.6772
X6.1417Y-3.7303
X6.1516Y-2.6476
X6.1614Y-3.7598
X6.1713Y-2.6181
X6.1811Y-3.7894
X6.2008Y-2.9035
X6.2303Y-2.5886
X6.2303Y-2.8543
X6.2402Y-3.8189
X6.25Y-2.5591
X6.2598Y-2.3622
X6.2598Y-3.8484
X6.2795Y-2.3327
X6.2795Y-3.878
X6.2992Y-2.3031
X6.2992Y-3.9075
X6.3189Y-2.2736
X6.3189Y-3.937
X6.3386Y-3.9665
X6.4075Y-2.9724
X6.4075Y-3.0217
X6.4272Y-2.5787
X6.437Y-2.3917
X6.437Y-2.815
X6.437Y-2.8937
X6.4764Y-3.0512
X6.4764Y-3.3858
X6.5256Y-2.3031
X6.5354Y-3.1988
X6.565Y-2.5295
X6.5945Y-2.9528
X6.6043Y-2.4606
X6.6339Y-3.3169
X6.6535Y-3.3465
X6.6634Y-3.1791
X6.6732Y-2.815
X6.6732Y-2.8937
X6.6732Y-3.376
X6.6929Y-3.4055
X6.7126Y-3.435
X6.7618Y-3.1102
X6.8209Y-2.7559
X6.8209Y-3.1496
X6.8209Y-3.189
X6.8209Y-3.2283
X6.9094Y-3.0315
X6.9882Y-2.6575
X7.0472Y-3.002
X7.0472Y-3.2087
X7.0669Y-3.2382
X7.0866Y-3.0315
X7.0866Y-3.2677
X7.1063Y-3.2972
X7.126Y-3.3268
X7.1457Y-3.3563
X7.1949Y-3.2776
X7.2047Y-2.9921
X7.2047Y-3.6417
X7.2244Y-3.6713
X7.2441Y-3.7008
X7.2638Y-3.7303
X7.2835Y-3.7598
X7.3031Y-3.7894
X7.3524Y-3.2776
X7.3622Y-2.9921
X7.3622Y-3.8189
X7.3819Y-3.8484
X7.4016Y-3.878
X7.4213Y-3.9075
X7.4409Y-3.937
X7.4606Y-3.9665
X7.5Y-2.9921
X7.5098Y-2.8642
X7.5098Y-3.2776
X7.5689Y-3.2382
X7.5984Y-3.189
X7.6083Y-2.9035
X7.6083Y-3.0118
X7.6772Y-3.0906
T2
X4.2913Y-3.5118
X4.2913Y-3.811
T3
X3.0102Y-2.7496
X3.0102Y-2.8496
X3.0102Y-2.9496
X3.0102Y-3.0496
X3.0102Y-3.1496
X3.1102Y-2.7496
X3.1102Y-2.8496
X3.1102Y-2.9496
X3.1102Y-3.0496
X3.1102Y-3.1496
X3.4236Y-2.7496
X3.4236Y-2.8496
X3.4236Y-2.9496
X3.4236Y-3.0496
X3.4236Y-3.1496
X3.5236Y-2.7496
X3.5236Y-2.8496
X3.5236Y-2.9496
X3.5236Y-3.0496
X3.5236Y-3.1496
X3.837Y-2.7496
X3.837Y-2.8496
X3.837Y-2.9496
X3.837Y-3.0496
X3.837Y-3.1496
X3.937Y-2.7496
X3.937Y-2.8496
X3.937Y-2.9496
X3.937Y-3.0496
X3.937Y-3.1496
T4
X3.0709Y-2.4016
X3.0709Y-3.5039
X3.6614Y-2.4016
X3.6614Y-3.5039
X7.0472Y-2.4016
X7.0472Y-3.5039
X7.6378Y-2.4016
X7.6378Y-3.5039
T0
M30
