G04 #@! TF.FileFunction,Paste,Top*
%FSLAX46Y46*%
G04 Gerber Fmt 4.6, Leading zero omitted, Abs format (unit mm)*
G04 Created by KiCad (PCBNEW 4.0.5+dfsg1-4) date Tue May 29 15:03:41 2018*
%MOMM*%
%LPD*%
G01*
G04 APERTURE LIST*
%ADD10C,0.100000*%
%ADD11R,4.000500X2.700020*%
%ADD12R,0.300000X1.200000*%
%ADD13R,2.400000X2.400000*%
%ADD14O,0.750000X0.250000*%
%ADD15O,0.250000X0.750000*%
%ADD16R,5.300000X5.300000*%
%ADD17R,0.600000X0.350000*%
%ADD18R,0.700000X1.000000*%
%ADD19R,1.000000X0.800000*%
%ADD20R,0.800100X0.800100*%
%ADD21R,2.700000X0.800000*%
%ADD22R,1.220000X0.910000*%
%ADD23R,0.750000X1.200000*%
%ADD24R,1.200000X0.750000*%
%ADD25R,0.900000X1.200000*%
%ADD26R,1.200000X0.900000*%
%ADD27R,0.508000X1.143000*%
%ADD28R,3.048000X1.651000*%
%ADD29R,6.096000X6.096000*%
%ADD30R,0.890000X0.420000*%
%ADD31R,0.650000X1.060000*%
G04 APERTURE END LIST*
D10*
D11*
X127388740Y-58750000D03*
X119611260Y-58750000D03*
D12*
X164500000Y-83500000D03*
X164000000Y-83500000D03*
X163500000Y-83500000D03*
X163000000Y-83500000D03*
X162500000Y-83500000D03*
X162000000Y-83500000D03*
X161500000Y-83500000D03*
X161000000Y-83500000D03*
X160500000Y-83500000D03*
X160000000Y-83500000D03*
X159500000Y-83500000D03*
X159000000Y-83500000D03*
X158500000Y-83500000D03*
X158000000Y-83500000D03*
X157500000Y-83500000D03*
X157000000Y-83500000D03*
X156500000Y-83500000D03*
X156000000Y-83500000D03*
X155500000Y-83500000D03*
X155000000Y-83500000D03*
X154500000Y-83500000D03*
X154000000Y-83500000D03*
X153500000Y-83500000D03*
X153000000Y-83500000D03*
X152500000Y-83500000D03*
X152000000Y-83500000D03*
X151500000Y-83500000D03*
X151000000Y-83500000D03*
X150500000Y-83500000D03*
X150000000Y-83500000D03*
X149500000Y-83500000D03*
X149000000Y-83500000D03*
X148500000Y-83500000D03*
X148000000Y-83500000D03*
X147500000Y-83500000D03*
X147000000Y-83500000D03*
X146500000Y-83500000D03*
X146000000Y-83500000D03*
X145500000Y-83500000D03*
X145000000Y-83500000D03*
D13*
X166650000Y-86200000D03*
X142850000Y-86200000D03*
D11*
X96888740Y-95000000D03*
X89111260Y-95000000D03*
X96888740Y-99500000D03*
X89111260Y-99500000D03*
D14*
X117525000Y-69750000D03*
X117525000Y-70250000D03*
X117525000Y-70750000D03*
X117525000Y-71250000D03*
X117525000Y-71750000D03*
X117525000Y-72250000D03*
X117525000Y-72750000D03*
X117525000Y-69250000D03*
X117525000Y-68750000D03*
X117525000Y-68250000D03*
X117525000Y-67750000D03*
X110475000Y-67250000D03*
X110475000Y-67750000D03*
X110475000Y-68250000D03*
X110475000Y-68750000D03*
X110475000Y-69250000D03*
X110475000Y-69750000D03*
X110475000Y-70250000D03*
X110475000Y-70750000D03*
X110475000Y-71250000D03*
X110475000Y-71750000D03*
X110475000Y-72250000D03*
X110475000Y-72750000D03*
D15*
X114250000Y-66475000D03*
X114750000Y-66475000D03*
X115250000Y-66475000D03*
X115750000Y-66475000D03*
X116250000Y-66475000D03*
X116750000Y-66475000D03*
X113750000Y-66475000D03*
X113250000Y-66475000D03*
X112750000Y-66475000D03*
X112250000Y-66475000D03*
X111750000Y-66475000D03*
X111250000Y-66475000D03*
X116750000Y-73525000D03*
X116250000Y-73525000D03*
X115725000Y-73525000D03*
X115250000Y-73525000D03*
X114750000Y-73525000D03*
X114250000Y-73525000D03*
X113750000Y-73525000D03*
X113250000Y-73525000D03*
X112750000Y-73525000D03*
X112250000Y-73525000D03*
X111750000Y-73525000D03*
X111250000Y-73525000D03*
D14*
X117525000Y-67250000D03*
D16*
X114000000Y-70000000D03*
D17*
X118350000Y-79250000D03*
X118350000Y-79750000D03*
X118350000Y-80250000D03*
X118350000Y-80750000D03*
X118350000Y-81250000D03*
X118350000Y-81750000D03*
X118350000Y-82250000D03*
X118350000Y-82750000D03*
X119650000Y-82750000D03*
X119650000Y-82250000D03*
X119650000Y-81750000D03*
X119650000Y-81250000D03*
X119650000Y-80750000D03*
X119650000Y-80250000D03*
X119650000Y-79750000D03*
X119650000Y-79250000D03*
X123600000Y-71250000D03*
X123600000Y-71750000D03*
X123600000Y-72250000D03*
X123600000Y-72750000D03*
X123600000Y-73250000D03*
X123600000Y-73750000D03*
X123600000Y-74250000D03*
X123600000Y-74750000D03*
X124900000Y-74750000D03*
X124900000Y-74250000D03*
X124900000Y-73750000D03*
X124900000Y-73250000D03*
X124900000Y-72750000D03*
X124900000Y-72250000D03*
X124900000Y-71750000D03*
X124900000Y-71250000D03*
X125350000Y-63250000D03*
X125350000Y-63750000D03*
X125350000Y-64250000D03*
X125350000Y-64750000D03*
X125350000Y-65250000D03*
X125350000Y-65750000D03*
X125350000Y-66250000D03*
X125350000Y-66750000D03*
X126650000Y-66750000D03*
X126650000Y-66250000D03*
X126650000Y-65750000D03*
X126650000Y-65250000D03*
X126650000Y-64750000D03*
X126650000Y-64250000D03*
X126650000Y-63750000D03*
X126650000Y-63250000D03*
D18*
X134845000Y-60726000D03*
X136115000Y-60726000D03*
X137385000Y-60726000D03*
X138655000Y-60726000D03*
X134845000Y-63774000D03*
X136115000Y-63774000D03*
X137385000Y-63774000D03*
X138655000Y-63774000D03*
D19*
X133575000Y-62250000D03*
X139925000Y-62250000D03*
D18*
X134845000Y-69226000D03*
X136115000Y-69226000D03*
X137385000Y-69226000D03*
X138655000Y-69226000D03*
X134845000Y-72274000D03*
X136115000Y-72274000D03*
X137385000Y-72274000D03*
X138655000Y-72274000D03*
D19*
X133575000Y-70750000D03*
X139925000Y-70750000D03*
D18*
X134845000Y-77726000D03*
X136115000Y-77726000D03*
X137385000Y-77726000D03*
X138655000Y-77726000D03*
X134845000Y-80774000D03*
X136115000Y-80774000D03*
X137385000Y-80774000D03*
X138655000Y-80774000D03*
D19*
X133575000Y-79250000D03*
X139925000Y-79250000D03*
D20*
X170950000Y-64749240D03*
X169050000Y-64749240D03*
X170000000Y-66748220D03*
D21*
X170000000Y-62350000D03*
X170000000Y-60150000D03*
D22*
X173750000Y-62635000D03*
X173750000Y-59365000D03*
D23*
X82500000Y-60450000D03*
X82500000Y-58550000D03*
D24*
X106950000Y-69250000D03*
X105050000Y-69250000D03*
D23*
X101500000Y-61950000D03*
X101500000Y-60050000D03*
X120500000Y-90550000D03*
X120500000Y-92450000D03*
D24*
X106950000Y-70750000D03*
X105050000Y-70750000D03*
D23*
X125000000Y-90550000D03*
X125000000Y-92450000D03*
D24*
X106950000Y-67750000D03*
X105050000Y-67750000D03*
D23*
X129250000Y-90550000D03*
X129250000Y-92450000D03*
D24*
X132950000Y-88500000D03*
X131050000Y-88500000D03*
X126550000Y-98250000D03*
X128450000Y-98250000D03*
X166700000Y-65500000D03*
X164800000Y-65500000D03*
X100700000Y-86000000D03*
X98800000Y-86000000D03*
D23*
X117000000Y-99950000D03*
X117000000Y-98050000D03*
D25*
X88500000Y-60600000D03*
X88500000Y-58400000D03*
X85500000Y-60600000D03*
X85500000Y-58400000D03*
X84500000Y-89600000D03*
X84500000Y-87400000D03*
X82500000Y-87400000D03*
X82500000Y-89600000D03*
X84000000Y-60600000D03*
X84000000Y-58400000D03*
X99500000Y-62100000D03*
X99500000Y-59900000D03*
X97500000Y-62100000D03*
X97500000Y-59900000D03*
X88500000Y-87400000D03*
X88500000Y-89600000D03*
X87000000Y-60600000D03*
X87000000Y-58400000D03*
X86500000Y-87400000D03*
X86500000Y-89600000D03*
X104250000Y-75150000D03*
X104250000Y-77350000D03*
D26*
X100100000Y-89750000D03*
X97900000Y-89750000D03*
D25*
X106000000Y-75150000D03*
X106000000Y-77350000D03*
X107750000Y-81150000D03*
X107750000Y-83350000D03*
X106000000Y-81150000D03*
X106000000Y-83350000D03*
X104250000Y-81150000D03*
X104250000Y-83350000D03*
X115250000Y-57400000D03*
X115250000Y-59600000D03*
D26*
X120350000Y-88500000D03*
X118150000Y-88500000D03*
X124850000Y-88500000D03*
X122650000Y-88500000D03*
X129100000Y-88500000D03*
X126900000Y-88500000D03*
D25*
X133000000Y-92600000D03*
X133000000Y-90400000D03*
D26*
X121400000Y-95500000D03*
X123600000Y-95500000D03*
D25*
X173000000Y-64900000D03*
X173000000Y-67100000D03*
X195000000Y-76100000D03*
X195000000Y-73900000D03*
X197000000Y-76100000D03*
X197000000Y-73900000D03*
D27*
X104055000Y-57825000D03*
X106595000Y-57825000D03*
X107865000Y-57825000D03*
X109135000Y-57825000D03*
X110405000Y-57825000D03*
X111675000Y-57825000D03*
X112945000Y-57825000D03*
X112945000Y-64175000D03*
X111675000Y-64175000D03*
X110405000Y-64175000D03*
X109135000Y-64175000D03*
X107865000Y-64175000D03*
X106595000Y-64175000D03*
X105325000Y-64175000D03*
X104055000Y-64175000D03*
X105325000Y-57825000D03*
D28*
X83000000Y-99286000D03*
D29*
X76650000Y-97000000D03*
D28*
X83000000Y-94714000D03*
D30*
X124605000Y-98975000D03*
X124605000Y-98325000D03*
X124605000Y-97675000D03*
X124605000Y-97025000D03*
X120395000Y-97025000D03*
X120395000Y-97675000D03*
X120395000Y-98325000D03*
X120395000Y-98975000D03*
D31*
X166700000Y-60150000D03*
X165750000Y-60150000D03*
X164800000Y-60150000D03*
X164800000Y-62350000D03*
X166700000Y-62350000D03*
D26*
X167600000Y-71500000D03*
X165400000Y-71500000D03*
D24*
X175050000Y-66000000D03*
X176950000Y-66000000D03*
D23*
X164500000Y-80700000D03*
X164500000Y-78800000D03*
D12*
X193000000Y-78500000D03*
X192500000Y-78500000D03*
X192000000Y-78500000D03*
X191500000Y-78500000D03*
X191000000Y-78500000D03*
X190500000Y-78500000D03*
X190000000Y-78500000D03*
X189500000Y-78500000D03*
X189000000Y-78500000D03*
X188500000Y-78500000D03*
X188000000Y-78500000D03*
X187500000Y-78500000D03*
X187000000Y-78500000D03*
X186500000Y-78500000D03*
X186000000Y-78500000D03*
X185500000Y-78500000D03*
X185000000Y-78500000D03*
X184500000Y-78500000D03*
X184000000Y-78500000D03*
X183500000Y-78500000D03*
X183000000Y-78500000D03*
X182500000Y-78500000D03*
X182000000Y-78500000D03*
X181500000Y-78500000D03*
X181000000Y-78500000D03*
X180500000Y-78500000D03*
X180000000Y-78500000D03*
X179500000Y-78500000D03*
X179000000Y-78500000D03*
X178500000Y-78500000D03*
X178000000Y-78500000D03*
X177500000Y-78500000D03*
X177000000Y-78500000D03*
X176500000Y-78500000D03*
X176000000Y-78500000D03*
X175500000Y-78500000D03*
X175000000Y-78500000D03*
X174500000Y-78500000D03*
X174000000Y-78500000D03*
X173500000Y-78500000D03*
D13*
X195150000Y-81200000D03*
X171350000Y-81200000D03*
D26*
X165400000Y-73500000D03*
X167600000Y-73500000D03*
X173350000Y-71500000D03*
X171150000Y-71500000D03*
X171150000Y-73500000D03*
X173350000Y-73500000D03*
D24*
X108200000Y-66000000D03*
X106300000Y-66000000D03*
D23*
X191750000Y-75700000D03*
X191750000Y-73800000D03*
M02*
